<svg width="492" height="98" xmlns="http://www.w3.org/2000/svg" xmlns:xlink="http://www.w3.org/1999/xlink" overflow="hidden"><defs><clipPath id="clip0"><rect x="394" y="311" width="492" height="98"/></clipPath></defs><g clip-path="url(#clip0)" transform="translate(-394 -311)"><path d="M508.891 341.925 508.891 383.62 520.246 383.62C524.981 383.62 528.526 382.513 530.881 380.298 533.237 378.083 534.414 374.749 534.414 370.296L534.414 355.249C534.414 350.796 533.237 347.462 530.881 345.247 528.526 343.032 524.981 341.925 520.246 341.925ZM757.891 341.89 757.891 361.999 773.395 361.999C775.293 361.999 776.963 361.583 778.404 360.751 779.846 359.919 780.959 358.741 781.744 357.218 782.529 355.695 782.934 353.937 782.957 351.945 782.957 349.952 782.565 348.195 781.779 346.671 780.994 345.148 779.881 343.97 778.44 343.138 776.998 342.306 775.317 341.89 773.395 341.89ZM723.738 341.398C721.02 341.398 718.693 341.943 716.76 343.032 714.826 344.122 713.356 345.704 712.348 347.779 711.34 349.853 710.836 352.355 710.836 355.284L710.836 370.261C710.836 373.191 711.34 375.693 712.348 377.767 713.356 379.841 714.826 381.423 716.76 382.513 718.693 383.603 721.02 384.148 723.738 384.148 726.457 384.148 728.783 383.603 730.717 382.513 732.651 381.423 734.121 379.841 735.129 377.767 736.137 375.693 736.641 373.191 736.641 370.261L736.641 355.284C736.641 352.355 736.137 349.853 735.129 347.779 734.121 345.704 732.651 344.122 730.717 343.032 728.783 341.943 726.457 341.398 723.738 341.398ZM474.738 341.398C472.02 341.398 469.694 341.943 467.76 343.032 465.826 344.122 464.356 345.704 463.348 347.779 462.34 349.853 461.836 352.355 461.836 355.284L461.836 370.261C461.836 373.191 462.34 375.693 463.348 377.767 464.356 379.841 465.826 381.423 467.76 382.513 469.694 383.603 472.02 384.148 474.738 384.148 477.457 384.148 479.783 383.603 481.717 382.513 483.651 381.423 485.121 379.841 486.129 377.767 487.137 375.693 487.641 373.191 487.641 370.261L487.641 355.284C487.641 352.355 487.137 349.853 486.129 347.779 485.121 345.704 483.651 344.122 481.717 343.032 479.783 341.943 477.457 341.398 474.738 341.398ZM792.797 337.214 828.867 337.214 828.867 341.925 813.363 341.925 813.363 388.331 808.301 388.331 808.301 341.925 792.797 341.925ZM657.828 337.214 662.891 337.214 662.891 360.628 688.977 360.628 688.977 337.214 694.039 337.214 694.039 388.331 688.977 388.331 688.977 365.515 662.891 365.515 662.891 388.331 657.828 388.331ZM550.828 337.214 554.309 337.214 555.891 337.214 583.664 337.214 583.664 341.925 555.891 341.925 555.891 360.593 579.797 360.593 579.797 365.304 555.891 365.304 555.891 383.62 583.664 383.62 583.664 388.331 555.891 388.331 554.309 388.331 550.828 388.331ZM503.828 337.214 508.68 337.214 508.891 337.214 520.035 337.214C524.371 337.214 527.981 337.888 530.863 339.236 533.746 340.583 535.903 342.616 537.332 345.335 538.762 348.054 539.477 351.452 539.477 355.53L539.477 370.015C539.477 374.093 538.756 377.486 537.315 380.193 535.873 382.9 533.711 384.933 530.828 386.292 527.945 387.652 524.336 388.331 520 388.331L508.891 388.331 508.68 388.331 503.828 388.331ZM752.828 337.179 755.957 337.179 757.891 337.179 773.113 337.179C776.067 337.179 778.662 337.788 780.901 339.007 783.139 340.226 784.873 341.954 786.104 344.193 787.334 346.431 787.949 349.015 787.949 351.945 787.949 354.874 787.334 357.458 786.104 359.696 784.873 361.935 783.133 363.663 780.883 364.882 780.32 365.187 779.737 365.453 779.132 365.682L778.294 365.937 790.094 388.331 784.047 388.331 773.138 366.709 773.113 366.71 757.891 366.71 757.891 388.331 752.828 388.331ZM852.231 336.687C854.035 336.687 855.822 336.886 857.592 337.284 859.361 337.683 861.108 338.275 862.83 339.06 864.553 339.845 866.258 340.835 867.945 342.03L864.957 346.003C862.754 344.456 860.598 343.302 858.488 342.54 856.379 341.779 854.293 341.398 852.231 341.398 848.059 341.398 844.824 342.277 842.527 344.034 840.231 345.792 839.082 348.265 839.082 351.452L839.082 351.487C839.082 353.409 839.656 354.927 840.805 356.04 841.953 357.154 843.377 357.98 845.076 358.519 846.776 359.058 849.102 359.62 852.055 360.206 852.149 360.23 852.248 360.253 852.354 360.277 852.459 360.3 852.57 360.323 852.688 360.347 852.828 360.37 852.963 360.4 853.092 360.435 853.221 360.47 853.356 360.499 853.496 360.523 856.707 361.179 859.379 361.929 861.512 362.773 863.645 363.616 865.42 364.935 866.838 366.728 868.256 368.521 868.965 370.941 868.965 373.987L868.965 374.058C868.965 377.175 868.227 379.841 866.75 382.056 865.274 384.271 863.135 385.958 860.334 387.118 857.533 388.279 854.152 388.859 850.192 388.859 847.731 388.859 845.399 388.624 843.195 388.155 840.992 387.687 838.936 386.984 837.026 386.046 835.115 385.109 833.328 383.937 831.664 382.53L834.723 378.523C836.856 380.398 839.211 381.804 841.789 382.741 844.367 383.679 847.168 384.148 850.192 384.148 854.574 384.148 857.967 383.28 860.369 381.546 862.772 379.812 863.973 377.374 863.973 374.234L863.973 374.198C863.973 372.253 863.451 370.695 862.408 369.523 861.365 368.351 860.018 367.472 858.365 366.886 856.713 366.3 854.586 365.761 851.984 365.269 851.914 365.245 851.838 365.228 851.756 365.216 851.674 365.204 851.586 365.187 851.492 365.163L850.473 364.952C846.887 364.273 844.016 363.564 841.859 362.825 839.703 362.087 837.869 360.833 836.358 359.064 834.846 357.294 834.09 354.839 834.09 351.698L834.09 351.663C834.09 348.499 834.799 345.798 836.217 343.56 837.635 341.321 839.703 339.616 842.422 338.445 845.141 337.273 848.41 336.687 852.231 336.687ZM723.738 336.687C727.535 336.687 730.776 337.425 733.459 338.902 736.143 340.378 738.188 342.523 739.594 345.335 741 348.148 741.703 351.546 741.703 355.53L741.703 370.015C741.703 373.999 741 377.398 739.594 380.21 738.188 383.023 736.143 385.167 733.459 386.644 730.776 388.12 727.535 388.859 723.738 388.859 719.942 388.859 716.701 388.12 714.018 386.644 711.334 385.167 709.289 383.023 707.883 380.21 706.477 377.398 705.774 373.999 705.774 370.015L705.774 355.53C705.774 351.546 706.477 348.148 707.883 345.335 709.289 342.523 711.334 340.378 714.018 338.902 716.701 337.425 719.942 336.687 723.738 336.687ZM631.231 336.687C633.035 336.687 634.822 336.886 636.592 337.284 638.361 337.683 640.108 338.275 641.83 339.06 643.553 339.845 645.258 340.835 646.945 342.03L643.957 346.003C641.754 344.456 639.598 343.302 637.488 342.54 635.379 341.779 633.293 341.398 631.231 341.398 627.059 341.398 623.824 342.277 621.528 344.034 619.231 345.792 618.082 348.265 618.082 351.452L618.082 351.487C618.082 353.409 618.656 354.927 619.805 356.04 620.953 357.154 622.377 357.98 624.076 358.519 625.776 359.058 628.102 359.62 631.055 360.206 631.149 360.23 631.248 360.253 631.354 360.277 631.459 360.3 631.57 360.323 631.688 360.347 631.828 360.37 631.963 360.4 632.092 360.435 632.221 360.47 632.356 360.499 632.496 360.523 635.707 361.179 638.379 361.929 640.512 362.773 642.645 363.616 644.42 364.935 645.838 366.728 647.256 368.521 647.965 370.941 647.965 373.987L647.965 374.058C647.965 377.175 647.227 379.841 645.75 382.056 644.274 384.271 642.135 385.958 639.334 387.118 636.533 388.279 633.152 388.859 629.192 388.859 626.731 388.859 624.399 388.624 622.195 388.155 619.992 387.687 617.936 386.984 616.026 386.046 614.115 385.109 612.328 383.937 610.664 382.53L613.723 378.523C615.856 380.398 618.211 381.804 620.789 382.741 623.367 383.679 626.168 384.148 629.192 384.148 633.574 384.148 636.967 383.28 639.369 381.546 641.772 379.812 642.973 377.374 642.973 374.234L642.973 374.198C642.973 372.253 642.451 370.695 641.408 369.523 640.365 368.351 639.018 367.472 637.365 366.886 635.713 366.3 633.586 365.761 630.984 365.269 630.914 365.245 630.838 365.228 630.756 365.216 630.674 365.204 630.586 365.187 630.492 365.163L629.473 364.952C625.887 364.273 623.016 363.564 620.86 362.825 618.703 362.087 616.869 360.833 615.358 359.064 613.846 357.294 613.09 354.839 613.09 351.698L613.09 351.663C613.09 348.499 613.799 345.798 615.217 343.56 616.635 341.321 618.703 339.616 621.422 338.445 624.141 337.273 627.41 336.687 631.231 336.687ZM474.738 336.687C478.535 336.687 481.776 337.425 484.459 338.902 487.143 340.378 489.188 342.523 490.594 345.335 492 348.148 492.703 351.546 492.703 355.53L492.703 370.015C492.703 373.999 492 377.398 490.594 380.21 489.188 383.023 487.143 385.167 484.459 386.644 481.776 388.12 478.535 388.859 474.738 388.859 470.942 388.859 467.701 388.12 465.018 386.644 462.334 385.167 460.289 383.023 458.883 380.21 457.477 377.398 456.774 373.999 456.774 370.015L456.774 355.53C456.774 351.546 457.477 348.148 458.883 345.335 460.289 342.523 462.334 340.378 465.018 338.902 467.701 337.425 470.942 336.687 474.738 336.687ZM429.563 336.687C432.492 336.687 435.188 337.284 437.649 338.48 440.11 339.675 442.166 341.368 443.819 343.56 445.471 345.751 446.59 348.288 447.176 351.171L442.113 351.171C441.551 349.249 440.631 347.55 439.354 346.073 438.076 344.597 436.582 343.448 434.871 342.628 433.16 341.808 431.391 341.398 429.563 341.398 427.031 341.398 424.805 341.995 422.883 343.191 420.961 344.386 419.473 346.068 418.418 348.236 417.363 350.404 416.836 352.917 416.836 355.777L416.836 369.804C416.836 372.663 417.363 375.177 418.418 377.345 419.473 379.513 420.961 381.189 422.883 382.372 424.805 383.556 427.031 384.148 429.563 384.148 431.391 384.148 433.16 383.761 434.871 382.987 436.582 382.214 438.076 381.089 439.354 379.612 440.631 378.136 441.551 376.39 442.113 374.374L447.176 374.374C446.59 377.257 445.465 379.794 443.801 381.986 442.137 384.177 440.074 385.87 437.613 387.066 435.152 388.261 432.469 388.859 429.563 388.859 426.024 388.859 422.912 388.073 420.229 386.503 417.545 384.933 415.465 382.706 413.988 379.823 412.512 376.941 411.774 373.601 411.774 369.804L411.774 355.777C411.774 351.98 412.512 348.64 413.988 345.757 415.465 342.874 417.545 340.642 420.229 339.06 422.912 337.478 426.024 336.687 429.563 336.687Z" stroke="#EA4F4F" stroke-linejoin="round" stroke-miterlimit="10" fill="#EA4F4F" fill-rule="evenodd"/><text fill="#000000" fill-opacity="0" font-family="Arial,Arial_MSFontService,sans-serif" font-size="52.1719" x="411.774" y="382.337">CODE SHORTS</text></g></svg>